<svg width="39" height="9" viewBox="0 0 39 9" fill="none" xmlns="http://www.w3.org/2000/svg">
<path d="M9 4.5C9 6.98528 6.98528 9 4.5 9C2.01472 9 0 6.98528 0 4.5C0 2.01472 2.01472 0 4.5 0C6.98528 0 9 2.01472 9 4.5Z" fill="#666B70"/>
<path d="M24 4.5C24 6.98528 21.9853 9 19.5 9C17.0147 9 15 6.98528 15 4.5C15 2.01472 17.0147 0 19.5 0C21.9853 0 24 2.01472 24 4.5Z" fill="#666B70"/>
<path d="M39 4.5C39 6.98528 36.9853 9 34.5 9C32.0147 9 30 6.98528 30 4.5C30 2.01472 32.0147 0 34.5 0C36.9853 0 39 2.01472 39 4.5Z" fill="#666B70"/>
</svg>
